<svg width="69" height="79" viewBox="0 0 69 79" fill="none" xmlns="http://www.w3.org/2000/svg">
<path d="M57.0077 70.0824L55.4897 76.4075L24.6232 75.9015L17.539 60.9743L14.503 55.6612L12.4789 52.6251L8.17787 48.071L7.41885 43.264L2.35876 40.4809L2.35876 32.3848L5.14181 27.8307L12.4789 29.3487L16.274 34.4088L18.551 33.3968L17.286 11.8914V3.54227L26.1412 1.77124L31.9603 11.8914L38.0324 16.6985L43.8515 17.7105L47.8996 21.5056L53.7187 23.2766L58.7787 26.8187L65.1039 29.6017L64.0918 56.1672L62.8268 58.4442L58.7787 67.2994L57.0077 70.0824Z" fill="white"/>
<path d="M52.673 73.6699H26.3364V68.4027H21.0692V78.9373H57.9402V68.4027H52.673V73.6699ZM57.9402 57.8681H63.2075V68.4027H57.9402V57.8681ZM47.4056 36.7989H52.673V26.2643H57.9402V20.9971H47.4056V36.7989ZM57.9402 26.2643V31.5317H63.2075V57.8681H68.4748V26.2643L57.9402 26.2643ZM36.871 31.5317H42.1384V20.9971H47.4056V15.7297L36.871 15.7297V31.5317ZM15.8018 57.8681H21.0692L21.0692 68.4027H15.8018L15.8018 57.8681ZM10.5346 47.3335H15.802V57.8681H10.5346L10.5346 47.3335ZM5.26721 42.0663H10.5346V51.6132H5.26721V42.0663Z" fill="black"/>
<path d="M31.6038 10.4626V0H15.8018V31.5318L10.5346 26.2644H0V42.0664H5.26722V31.5318H10.5346V36.799H15.8018V42.0664H21.0692V5.26737H26.3364V26.9126H31.6038V15.7298H36.871V10.4626H31.6038Z" fill="black"/>
</svg>
